<svg width="170" height="66" viewBox="0 0 170 66" fill="none" xmlns="http://www.w3.org/2000/svg">
<rect x="1" y="1" width="168" height="64" rx="32" fill="white"/>
<path d="M38.6255 47.0206C34.4521 46.9966 31 38.4773 31 34.1387C31 27.0515 36.3166 25.4999 38.3656 25.4999C39.2889 25.4999 40.2749 25.8626 41.1446 26.1834C41.7527 26.4073 42.3817 26.6383 42.7315 26.6383C42.9409 26.6383 43.4343 26.4418 43.8699 26.2693C44.7989 25.8995 45.9549 25.4398 47.3011 25.4398C47.3035 25.4398 47.3068 25.4398 47.3091 25.4398C48.3143 25.4398 51.3622 25.6604 53.1945 28.4122L53.6237 29.0572L53.006 29.5233C52.1235 30.1892 50.5134 31.4038 50.5134 33.8098C50.5134 36.6594 52.3369 37.7553 53.213 38.2824C53.5997 38.5151 54 38.7549 54 39.2796C54 39.6222 51.2659 46.9781 47.2955 46.9781C46.324 46.9781 45.6372 46.6861 45.0315 46.4286C44.4186 46.1678 43.8899 45.9432 43.0162 45.9432C42.5734 45.9432 42.0134 46.1526 41.4205 46.3748C40.6103 46.6772 39.6933 47.0206 38.6528 47.0206H38.6255Z" fill="#FF914D"/>
<path d="M47.7218 18.9794C47.8252 22.7078 45.1588 25.2943 42.4956 25.1321C42.0567 22.1567 45.1585 18.9794 47.7218 18.9794Z" fill="#FF914D"/>
<path d="M65.2241 26V19H67.9641C68.4641 19 68.9141 19.0833 69.3141 19.25C69.7208 19.4167 70.0675 19.6567 70.3541 19.97C70.6408 20.2833 70.8608 20.6533 71.0141 21.08C71.1675 21.5067 71.2441 21.98 71.2441 22.5C71.2441 23.02 71.1675 23.4967 71.0141 23.93C70.8608 24.3567 70.6408 24.7267 70.3541 25.04C70.0741 25.3467 69.7308 25.5833 69.3241 25.75C68.9175 25.9167 68.4641 26 67.9641 26H65.2241ZM66.3041 25.07L66.2741 24.96H67.9141C68.2675 24.96 68.5808 24.9033 68.8541 24.79C69.1341 24.6767 69.3675 24.5167 69.5541 24.31C69.7475 24.0967 69.8941 23.8367 69.9941 23.53C70.0941 23.2233 70.1441 22.88 70.1441 22.5C70.1441 22.12 70.0941 21.78 69.9941 21.48C69.8941 21.1733 69.7475 20.9133 69.5541 20.7C69.3608 20.4867 69.1275 20.3233 68.8541 20.21C68.5808 20.0967 68.2675 20.04 67.9141 20.04H66.2441L66.3041 19.95V25.07ZM74.8046 26.1C74.2913 26.1 73.8313 25.9833 73.4246 25.75C73.0246 25.51 72.7079 25.1867 72.4746 24.78C72.2413 24.3667 72.1246 23.8967 72.1246 23.37C72.1246 22.8433 72.2413 22.3767 72.4746 21.97C72.7079 21.5567 73.0246 21.2333 73.4246 21C73.8313 20.76 74.2913 20.64 74.8046 20.64C75.3113 20.64 75.7646 20.76 76.1646 21C76.5713 21.2333 76.8913 21.5567 77.1246 21.97C77.3579 22.3767 77.4746 22.8433 77.4746 23.37C77.4746 23.8967 77.3579 24.3667 77.1246 24.78C76.8913 25.1867 76.5713 25.51 76.1646 25.75C75.7646 25.9833 75.3113 26.1 74.8046 26.1ZM74.8046 25.16C75.1179 25.16 75.3979 25.0833 75.6446 24.93C75.8913 24.77 76.0846 24.5567 76.2246 24.29C76.3646 24.0167 76.4313 23.71 76.4246 23.37C76.4313 23.0233 76.3646 22.7167 76.2246 22.45C76.0846 22.1767 75.8913 21.9633 75.6446 21.81C75.3979 21.6567 75.1179 21.58 74.8046 21.58C74.4913 21.58 74.2079 21.66 73.9546 21.82C73.7079 21.9733 73.5146 22.1867 73.3746 22.46C73.2346 22.7267 73.1679 23.03 73.1746 23.37C73.1679 23.71 73.2346 24.0167 73.3746 24.29C73.5146 24.5567 73.7079 24.77 73.9546 24.93C74.2079 25.0833 74.4913 25.16 74.8046 25.16ZM79.6916 26L77.9016 20.75L78.9416 20.74L80.2216 24.67L79.9916 24.65L81.3816 21.58H82.0016L83.4016 24.66L83.1316 24.68L84.4216 20.75H85.4616L83.6916 26H82.9816L81.5216 22.66L81.7516 22.69L80.3916 26H79.6916ZM86.3997 26V20.75H87.4297V21.83L87.2497 21.95C87.3164 21.7167 87.4464 21.5033 87.6397 21.31C87.833 21.11 88.063 20.95 88.3297 20.83C88.5964 20.7033 88.8697 20.64 89.1497 20.64C89.5497 20.64 89.883 20.72 90.1497 20.88C90.4164 21.0333 90.6164 21.27 90.7497 21.59C90.883 21.91 90.9497 22.3133 90.9497 22.8V26H89.9197V22.87C89.9197 22.57 89.8797 22.3233 89.7997 22.13C89.7197 21.93 89.5964 21.7867 89.4297 21.7C89.263 21.6067 89.0564 21.5667 88.8097 21.58C88.6097 21.58 88.4264 21.6133 88.2597 21.68C88.093 21.74 87.9464 21.8267 87.8197 21.94C87.6997 22.0533 87.603 22.1867 87.5297 22.34C87.463 22.4867 87.4297 22.6467 87.4297 22.82V26H86.9197C86.833 26 86.7464 26 86.6597 26C86.573 26 86.4864 26 86.3997 26ZM92.367 26V18.6H93.397V26H92.367ZM97.1191 26.1C96.6057 26.1 96.1457 25.9833 95.7391 25.75C95.3391 25.51 95.0224 25.1867 94.7891 24.78C94.5557 24.3667 94.4391 23.8967 94.4391 23.37C94.4391 22.8433 94.5557 22.3767 94.7891 21.97C95.0224 21.5567 95.3391 21.2333 95.7391 21C96.1457 20.76 96.6057 20.64 97.1191 20.64C97.6257 20.64 98.0791 20.76 98.4791 21C98.8857 21.2333 99.2057 21.5567 99.4391 21.97C99.6724 22.3767 99.7891 22.8433 99.7891 23.37C99.7891 23.8967 99.6724 24.3667 99.4391 24.78C99.2057 25.1867 98.8857 25.51 98.4791 25.75C98.0791 25.9833 97.6257 26.1 97.1191 26.1ZM97.1191 25.16C97.4324 25.16 97.7124 25.0833 97.9591 24.93C98.2057 24.77 98.3991 24.5567 98.5391 24.29C98.6791 24.0167 98.7457 23.71 98.7391 23.37C98.7457 23.0233 98.6791 22.7167 98.5391 22.45C98.3991 22.1767 98.2057 21.9633 97.9591 21.81C97.7124 21.6567 97.4324 21.58 97.1191 21.58C96.8057 21.58 96.5224 21.66 96.2691 21.82C96.0224 21.9733 95.8291 22.1867 95.6891 22.46C95.5491 22.7267 95.4824 23.03 95.4891 23.37C95.4824 23.71 95.5491 24.0167 95.6891 24.29C95.8291 24.5567 96.0224 24.77 96.2691 24.93C96.5224 25.0833 96.8057 25.16 97.1191 25.16ZM102.931 26.1C102.498 26.1 102.101 25.98 101.741 25.74C101.388 25.5 101.105 25.1733 100.891 24.76C100.678 24.3467 100.571 23.88 100.571 23.36C100.571 22.8333 100.678 22.3667 100.891 21.96C101.111 21.5467 101.405 21.2233 101.771 20.99C102.145 20.7567 102.561 20.64 103.021 20.64C103.295 20.64 103.545 20.68 103.771 20.76C103.998 20.84 104.195 20.9533 104.361 21.1C104.535 21.24 104.675 21.4033 104.781 21.59C104.895 21.7767 104.965 21.9767 104.991 22.19L104.761 22.11V20.75H105.801V26H104.761V24.75L105.001 24.68C104.961 24.86 104.878 25.0367 104.751 25.21C104.631 25.3767 104.475 25.5267 104.281 25.66C104.095 25.7933 103.885 25.9 103.651 25.98C103.425 26.06 103.185 26.1 102.931 26.1ZM103.201 25.15C103.515 25.15 103.791 25.0733 104.031 24.92C104.271 24.7667 104.458 24.5567 104.591 24.29C104.731 24.0167 104.801 23.7067 104.801 23.36C104.801 23.02 104.731 22.7167 104.591 22.45C104.458 22.1833 104.271 21.9733 104.031 21.82C103.791 21.6667 103.515 21.59 103.201 21.59C102.895 21.59 102.621 21.6667 102.381 21.82C102.148 21.9733 101.961 22.1833 101.821 22.45C101.688 22.7167 101.621 23.02 101.621 23.36C101.621 23.7067 101.688 24.0167 101.821 24.29C101.961 24.5567 102.148 24.7667 102.381 24.92C102.621 25.0733 102.895 25.15 103.201 25.15ZM109.43 26.1C108.95 26.1 108.52 25.9833 108.14 25.75C107.766 25.51 107.47 25.1867 107.25 24.78C107.03 24.3667 106.92 23.8967 106.92 23.37C106.92 22.8433 107.026 22.3767 107.24 21.97C107.46 21.5567 107.756 21.2333 108.13 21C108.503 20.76 108.926 20.64 109.4 20.64C109.66 20.64 109.91 20.6833 110.15 20.77C110.396 20.85 110.616 20.9633 110.81 21.11C111.003 21.25 111.153 21.4067 111.26 21.58C111.373 21.7467 111.43 21.9167 111.43 22.09L111.13 22.11V18.6H112.16V26H111.13V24.75H111.33C111.33 24.91 111.276 25.07 111.17 25.23C111.063 25.3833 110.92 25.5267 110.74 25.66C110.566 25.7933 110.363 25.9 110.13 25.98C109.903 26.06 109.67 26.1 109.43 26.1ZM109.57 25.21C109.883 25.21 110.16 25.13 110.4 24.97C110.64 24.81 110.826 24.5933 110.96 24.32C111.1 24.04 111.17 23.7233 111.17 23.37C111.17 23.0167 111.1 22.7033 110.96 22.43C110.826 22.15 110.64 21.93 110.4 21.77C110.16 21.61 109.883 21.53 109.57 21.53C109.256 21.53 108.98 21.61 108.74 21.77C108.5 21.93 108.31 22.15 108.17 22.43C108.036 22.7033 107.97 23.0167 107.97 23.37C107.97 23.7233 108.036 24.04 108.17 24.32C108.31 24.5933 108.5 24.81 108.74 24.97C108.98 25.13 109.256 25.21 109.57 25.21ZM116.95 26V20.16C116.95 19.86 117.017 19.5933 117.15 19.36C117.283 19.1267 117.467 18.9433 117.7 18.81C117.933 18.6767 118.203 18.61 118.51 18.61C118.723 18.61 118.923 18.65 119.11 18.73C119.297 18.81 119.447 18.9167 119.56 19.05L119.21 19.84C119.123 19.76 119.027 19.6967 118.92 19.65C118.82 19.5967 118.723 19.57 118.63 19.57C118.49 19.57 118.37 19.5933 118.27 19.64C118.177 19.68 118.107 19.7467 118.06 19.84C118.013 19.9267 117.99 20.0333 117.99 20.16V26H117.47C117.383 26 117.297 26 117.21 26C117.123 26 117.037 26 116.95 26ZM116.11 21.79V20.84H119.23V21.79H116.11ZM120.306 26V20.75H121.346V22.4L121.246 22C121.319 21.7467 121.443 21.5167 121.616 21.31C121.796 21.1033 121.999 20.94 122.226 20.82C122.459 20.7 122.699 20.64 122.946 20.64C123.059 20.64 123.166 20.65 123.266 20.67C123.373 20.69 123.456 20.7133 123.516 20.74L123.246 21.86C123.166 21.8267 123.076 21.8 122.976 21.78C122.883 21.7533 122.789 21.74 122.696 21.74C122.516 21.74 122.343 21.7767 122.176 21.85C122.016 21.9167 121.873 22.0133 121.746 22.14C121.626 22.26 121.529 22.4033 121.456 22.57C121.383 22.73 121.346 22.9067 121.346 23.1V26H120.306ZM126.475 26.1C125.961 26.1 125.501 25.9833 125.095 25.75C124.695 25.51 124.378 25.1867 124.145 24.78C123.911 24.3667 123.795 23.8967 123.795 23.37C123.795 22.8433 123.911 22.3767 124.145 21.97C124.378 21.5567 124.695 21.2333 125.095 21C125.501 20.76 125.961 20.64 126.475 20.64C126.981 20.64 127.435 20.76 127.835 21C128.241 21.2333 128.561 21.5567 128.795 21.97C129.028 22.3767 129.145 22.8433 129.145 23.37C129.145 23.8967 129.028 24.3667 128.795 24.78C128.561 25.1867 128.241 25.51 127.835 25.75C127.435 25.9833 126.981 26.1 126.475 26.1ZM126.475 25.16C126.788 25.16 127.068 25.0833 127.315 24.93C127.561 24.77 127.755 24.5567 127.895 24.29C128.035 24.0167 128.101 23.71 128.095 23.37C128.101 23.0233 128.035 22.7167 127.895 22.45C127.755 22.1767 127.561 21.9633 127.315 21.81C127.068 21.6567 126.788 21.58 126.475 21.58C126.161 21.58 125.878 21.66 125.625 21.82C125.378 21.9733 125.185 22.1867 125.045 22.46C124.905 22.7267 124.838 23.03 124.845 23.37C124.838 23.71 124.905 24.0167 125.045 24.29C125.185 24.5567 125.378 24.77 125.625 24.93C125.878 25.0833 126.161 25.16 126.475 25.16ZM130.247 26V20.75H131.287V21.87L131.097 21.99C131.15 21.8167 131.234 21.65 131.347 21.49C131.467 21.33 131.61 21.19 131.777 21.07C131.95 20.9433 132.134 20.8433 132.327 20.77C132.527 20.6967 132.73 20.66 132.937 20.66C133.237 20.66 133.5 20.71 133.727 20.81C133.954 20.91 134.14 21.06 134.287 21.26C134.434 21.46 134.54 21.71 134.607 22.01L134.447 21.97L134.517 21.8C134.59 21.6467 134.69 21.5033 134.817 21.37C134.95 21.23 135.1 21.1067 135.267 21C135.434 20.8933 135.61 20.81 135.797 20.75C135.984 20.69 136.167 20.66 136.347 20.66C136.74 20.66 137.064 20.74 137.317 20.9C137.577 21.06 137.77 21.3033 137.897 21.63C138.03 21.9567 138.097 22.3633 138.097 22.85V26H137.057V22.91C137.057 22.61 137.017 22.3667 136.937 22.18C136.864 21.9867 136.75 21.8433 136.597 21.75C136.444 21.6567 136.247 21.61 136.007 21.61C135.82 21.61 135.644 21.6433 135.477 21.71C135.317 21.77 135.177 21.8567 135.057 21.97C134.937 22.0833 134.844 22.2167 134.777 22.37C134.71 22.5167 134.677 22.68 134.677 22.86V26H133.637V22.89C133.637 22.6167 133.597 22.3867 133.517 22.2C133.437 22.0067 133.32 21.86 133.167 21.76C133.014 21.66 132.827 21.61 132.607 21.61C132.42 21.61 132.247 21.6433 132.087 21.71C131.927 21.77 131.787 21.8567 131.667 21.97C131.547 22.0767 131.454 22.2067 131.387 22.36C131.32 22.5067 131.287 22.6667 131.287 22.84V26H130.247Z" fill="#898989"/>
<path d="M64.56 46L68.354 36.2H69.894L73.66 46H72.05L69.81 40.092C69.782 40.0267 69.726 39.868 69.642 39.616C69.5673 39.364 69.4786 39.084 69.376 38.776C69.2733 38.468 69.18 38.188 69.096 37.936C69.012 37.6747 68.956 37.5067 68.928 37.432L69.25 37.418C69.194 37.5767 69.124 37.7773 69.04 38.02C68.9653 38.2627 68.8813 38.5193 68.788 38.79C68.704 39.0607 68.62 39.3173 68.536 39.56C68.452 39.7933 68.382 39.9893 68.326 40.148L66.1 46H64.56ZM66.24 43.564L66.8 42.108H71.252L71.896 43.564H66.24ZM75.0207 49.08V38.65H76.4767V40.33L76.2527 40.204C76.3087 39.924 76.4674 39.658 76.7287 39.406C76.99 39.1447 77.3074 38.9347 77.6807 38.776C78.0634 38.608 78.4554 38.524 78.8567 38.524C79.5194 38.524 80.1074 38.6873 80.6207 39.014C81.134 39.3407 81.54 39.7887 81.8387 40.358C82.1374 40.9273 82.2867 41.5807 82.2867 42.318C82.2867 43.046 82.1374 43.6993 81.8387 44.278C81.5494 44.8473 81.148 45.3 80.6347 45.636C80.1214 45.9627 79.5427 46.126 78.8987 46.126C78.4694 46.126 78.054 46.042 77.6527 45.874C77.2514 45.6967 76.9107 45.4727 76.6307 45.202C76.3507 44.9313 76.178 44.6513 76.1127 44.362L76.4767 44.166V49.08H75.0207ZM78.6607 44.796C79.09 44.796 79.4727 44.6887 79.8087 44.474C80.1447 44.2593 80.4107 43.9653 80.6067 43.592C80.8027 43.2187 80.9007 42.794 80.9007 42.318C80.9007 41.842 80.8027 41.422 80.6067 41.058C80.42 40.6847 80.1587 40.3907 79.8227 40.176C79.4867 39.9613 79.0994 39.854 78.6607 39.854C78.222 39.854 77.8347 39.9613 77.4987 40.176C77.1627 40.3813 76.8967 40.6707 76.7007 41.044C76.5047 41.4173 76.4067 41.842 76.4067 42.318C76.4067 42.794 76.5047 43.2187 76.7007 43.592C76.8967 43.9653 77.1627 44.2593 77.4987 44.474C77.8347 44.6887 78.222 44.796 78.6607 44.796ZM83.8527 49.08V38.65H85.3087V40.33L85.0847 40.204C85.1407 39.924 85.2994 39.658 85.5607 39.406C85.8221 39.1447 86.1394 38.9347 86.5127 38.776C86.8954 38.608 87.2874 38.524 87.6887 38.524C88.3514 38.524 88.9394 38.6873 89.4527 39.014C89.9661 39.3407 90.3721 39.7887 90.6707 40.358C90.9694 40.9273 91.1187 41.5807 91.1187 42.318C91.1187 43.046 90.9694 43.6993 90.6707 44.278C90.3814 44.8473 89.9801 45.3 89.4667 45.636C88.9534 45.9627 88.3747 46.126 87.7307 46.126C87.3014 46.126 86.8861 46.042 86.4847 45.874C86.0834 45.6967 85.7427 45.4727 85.4627 45.202C85.1827 44.9313 85.0101 44.6513 84.9447 44.362L85.3087 44.166V49.08H83.8527ZM87.4927 44.796C87.9221 44.796 88.3047 44.6887 88.6407 44.474C88.9767 44.2593 89.2427 43.9653 89.4387 43.592C89.6347 43.2187 89.7327 42.794 89.7327 42.318C89.7327 41.842 89.6347 41.422 89.4387 41.058C89.2521 40.6847 88.9907 40.3907 88.6547 40.176C88.3187 39.9613 87.9314 39.854 87.4927 39.854C87.0541 39.854 86.6667 39.9613 86.3307 40.176C85.9947 40.3813 85.7287 40.6707 85.5327 41.044C85.3367 41.4173 85.2387 41.842 85.2387 42.318C85.2387 42.794 85.3367 43.2187 85.5327 43.592C85.7287 43.9653 85.9947 44.2593 86.3307 44.474C86.6667 44.6887 87.0541 44.796 87.4927 44.796ZM99.9966 46.14C99.4646 46.14 98.9699 46.07 98.5126 45.93C98.0646 45.79 97.6539 45.58 97.2806 45.3C96.9166 45.0107 96.5899 44.656 96.3006 44.236L97.3366 43.046C97.7939 43.6993 98.2326 44.152 98.6526 44.404C99.0726 44.656 99.5719 44.782 100.151 44.782C100.505 44.782 100.827 44.726 101.117 44.614C101.406 44.502 101.635 44.348 101.803 44.152C101.971 43.956 102.055 43.732 102.055 43.48C102.055 43.312 102.027 43.1533 101.971 43.004C101.915 42.8547 101.826 42.7193 101.705 42.598C101.593 42.4767 101.443 42.3647 101.257 42.262C101.079 42.1593 100.869 42.0707 100.627 41.996C100.384 41.912 100.104 41.842 99.7866 41.786C99.2826 41.6833 98.8439 41.548 98.4706 41.38C98.0973 41.212 97.7846 41.002 97.5326 40.75C97.2806 40.498 97.0939 40.2133 96.9726 39.896C96.8513 39.5693 96.7906 39.2053 96.7906 38.804C96.7906 38.412 96.8746 38.048 97.0426 37.712C97.2199 37.376 97.4579 37.0867 97.7566 36.844C98.0646 36.592 98.4239 36.4007 98.8346 36.27C99.2453 36.13 99.6886 36.06 100.165 36.06C100.669 36.06 101.131 36.1253 101.551 36.256C101.971 36.3867 102.344 36.5827 102.671 36.844C102.997 37.096 103.268 37.4087 103.483 37.782L102.419 38.832C102.232 38.524 102.022 38.2673 101.789 38.062C101.555 37.8473 101.299 37.6887 101.019 37.586C100.739 37.474 100.44 37.418 100.123 37.418C99.7586 37.418 99.4413 37.474 99.1706 37.586C98.8999 37.698 98.6853 37.8567 98.5266 38.062C98.3773 38.258 98.3026 38.4913 98.3026 38.762C98.3026 38.958 98.3399 39.14 98.4146 39.308C98.4893 39.4667 98.6013 39.6113 98.7506 39.742C98.9093 39.8633 99.1193 39.9753 99.3806 40.078C99.6419 40.1713 99.9546 40.2553 100.319 40.33C100.832 40.442 101.289 40.5867 101.691 40.764C102.092 40.932 102.433 41.1327 102.713 41.366C102.993 41.5993 103.203 41.8607 103.343 42.15C103.492 42.4393 103.567 42.752 103.567 43.088C103.567 43.7133 103.422 44.2547 103.133 44.712C102.843 45.1693 102.433 45.524 101.901 45.776C101.369 46.0187 100.734 46.14 99.9966 46.14ZM106.255 46V36.774H107.697V46H106.255ZM104.729 40.05V38.65H109.405V40.05H104.729ZM113.954 46.14C113.235 46.14 112.591 45.9767 112.022 45.65C111.462 45.314 111.018 44.8613 110.692 44.292C110.365 43.7133 110.202 43.0553 110.202 42.318C110.202 41.5807 110.365 40.9273 110.692 40.358C111.018 39.7793 111.462 39.3267 112.022 39C112.591 38.664 113.235 38.496 113.954 38.496C114.663 38.496 115.298 38.664 115.858 39C116.427 39.3267 116.875 39.7793 117.202 40.358C117.528 40.9273 117.692 41.5807 117.692 42.318C117.692 43.0553 117.528 43.7133 117.202 44.292C116.875 44.8613 116.427 45.314 115.858 45.65C115.298 45.9767 114.663 46.14 113.954 46.14ZM113.954 44.824C114.392 44.824 114.784 44.7167 115.13 44.502C115.475 44.278 115.746 43.9793 115.942 43.606C116.138 43.2233 116.231 42.794 116.222 42.318C116.231 41.8327 116.138 41.4033 115.942 41.03C115.746 40.6473 115.475 40.3487 115.13 40.134C114.784 39.9193 114.392 39.812 113.954 39.812C113.515 39.812 113.118 39.924 112.764 40.148C112.418 40.3627 112.148 40.6613 111.952 41.044C111.756 41.4173 111.662 41.842 111.672 42.318C111.662 42.794 111.756 43.2233 111.952 43.606C112.148 43.9793 112.418 44.278 112.764 44.502C113.118 44.7167 113.515 44.824 113.954 44.824ZM119.263 46V38.65H120.719V40.96L120.579 40.4C120.682 40.0453 120.854 39.7233 121.097 39.434C121.349 39.1447 121.634 38.916 121.951 38.748C122.278 38.58 122.614 38.496 122.959 38.496C123.118 38.496 123.267 38.51 123.407 38.538C123.556 38.566 123.673 38.5987 123.757 38.636L123.379 40.204C123.267 40.1573 123.141 40.12 123.001 40.092C122.87 40.0547 122.74 40.036 122.609 40.036C122.357 40.036 122.114 40.0873 121.881 40.19C121.657 40.2833 121.456 40.4187 121.279 40.596C121.111 40.764 120.976 40.9647 120.873 41.198C120.77 41.422 120.719 41.6693 120.719 41.94V46H119.263ZM128.025 46.14C127.269 46.14 126.597 45.9813 126.009 45.664C125.43 45.3373 124.973 44.894 124.637 44.334C124.31 43.774 124.147 43.13 124.147 42.402C124.147 41.8233 124.24 41.296 124.427 40.82C124.614 40.344 124.87 39.9333 125.197 39.588C125.533 39.2333 125.93 38.9627 126.387 38.776C126.854 38.58 127.358 38.482 127.899 38.482C128.375 38.482 128.818 38.5753 129.229 38.762C129.64 38.9393 129.994 39.1867 130.293 39.504C130.601 39.8213 130.834 40.1993 130.993 40.638C131.161 41.0673 131.24 41.5387 131.231 42.052L131.217 42.668H125.211L124.889 41.52H129.971L129.761 41.758V41.422C129.733 41.114 129.63 40.8387 129.453 40.596C129.276 40.3533 129.052 40.162 128.781 40.022C128.51 39.882 128.216 39.812 127.899 39.812C127.395 39.812 126.97 39.91 126.625 40.106C126.28 40.2927 126.018 40.5727 125.841 40.946C125.664 41.31 125.575 41.7627 125.575 42.304C125.575 42.8173 125.682 43.2653 125.897 43.648C126.112 44.0213 126.415 44.3107 126.807 44.516C127.199 44.7213 127.652 44.824 128.165 44.824C128.529 44.824 128.865 44.7633 129.173 44.642C129.49 44.5207 129.831 44.3013 130.195 43.984L130.923 45.006C130.699 45.23 130.424 45.426 130.097 45.594C129.78 45.762 129.439 45.8973 129.075 46C128.72 46.0933 128.37 46.14 128.025 46.14Z" fill="#FF914D"/>
<rect x="1" y="1" width="168" height="64" rx="32" stroke="#FF914D" stroke-width="0.7"/>
</svg>



<svg width="150" height="58" viewBox="0 0 150 58" fill="none" xmlns="http://www.w3.org/2000/svg">
<rect x="1" y="1" width="148" height="56" rx="28" fill="white"/>
<path d="M36.9678 39.9726C33.7017 39.9538 31 33.2865 31 29.8911C31 24.3446 35.1608 23.1303 36.7643 23.1303C37.487 23.1303 38.2586 23.4141 38.9392 23.6652C39.4152 23.8404 39.9074 24.0212 40.1812 24.0212C40.345 24.0212 40.7312 23.8674 41.0721 23.7324C41.7991 23.443 42.7039 23.0833 43.7574 23.0833C43.7593 23.0833 43.7618 23.0833 43.7637 23.0833C44.5504 23.0833 46.9356 23.2559 48.3696 25.4094L48.7055 25.9142L48.2221 26.279C47.5315 26.8001 46.2713 27.7507 46.2713 29.6337C46.2713 31.8638 47.6985 32.7215 48.3841 33.134C48.6867 33.3161 49 33.5038 49 33.9144C49 34.1825 46.8603 39.9393 43.753 39.9393C42.9927 39.9393 42.4552 39.7108 41.9812 39.5092C41.5015 39.3052 41.0877 39.1294 40.404 39.1294C40.0574 39.1294 39.6192 39.2933 39.1552 39.4672C38.5211 39.7038 37.8034 39.9726 36.9891 39.9726H36.9678Z" fill="#FF914D"/>
<path d="M44.0867 18.0273C44.1676 20.9452 42.0809 22.9695 39.9966 22.8425C39.6531 20.514 42.0806 18.0273 44.0867 18.0273Z" fill="#FF914D"/>
<path d="M59.9793 23V17.4H62.1713C62.5713 17.4 62.9313 17.4667 63.2513 17.6C63.5766 17.7333 63.854 17.9253 64.0833 18.176C64.3126 18.4267 64.4886 18.7227 64.6113 19.064C64.734 19.4053 64.7953 19.784 64.7953 20.2C64.7953 20.616 64.734 20.9973 64.6113 21.344C64.4886 21.6853 64.3126 21.9813 64.0833 22.232C63.8593 22.4773 63.5846 22.6667 63.2593 22.8C62.934 22.9333 62.5713 23 62.1713 23H59.9793ZM60.8433 22.256L60.8193 22.168H62.1313C62.414 22.168 62.6646 22.1227 62.8833 22.032C63.1073 21.9413 63.294 21.8133 63.4433 21.648C63.598 21.4773 63.7153 21.2693 63.7953 21.024C63.8753 20.7787 63.9153 20.504 63.9153 20.2C63.9153 19.896 63.8753 19.624 63.7953 19.384C63.7153 19.1387 63.598 18.9307 63.4433 18.76C63.2886 18.5893 63.102 18.4587 62.8833 18.368C62.6646 18.2773 62.414 18.232 62.1313 18.232H60.7953L60.8433 18.16V22.256ZM67.6437 23.08C67.233 23.08 66.865 22.9867 66.5397 22.8C66.2197 22.608 65.9664 22.3493 65.7797 22.024C65.593 21.6933 65.4997 21.3173 65.4997 20.896C65.4997 20.4747 65.593 20.1013 65.7797 19.776C65.9664 19.4453 66.2197 19.1867 66.5397 19C66.865 18.808 67.233 18.712 67.6437 18.712C68.049 18.712 68.4117 18.808 68.7317 19C69.057 19.1867 69.313 19.4453 69.4997 19.776C69.6864 20.1013 69.7797 20.4747 69.7797 20.896C69.7797 21.3173 69.6864 21.6933 69.4997 22.024C69.313 22.3493 69.057 22.608 68.7317 22.8C68.4117 22.9867 68.049 23.08 67.6437 23.08ZM67.6437 22.328C67.8944 22.328 68.1184 22.2667 68.3157 22.144C68.513 22.016 68.6677 21.8453 68.7797 21.632C68.8917 21.4133 68.945 21.168 68.9397 20.896C68.945 20.6187 68.8917 20.3733 68.7797 20.16C68.6677 19.9413 68.513 19.7707 68.3157 19.648C68.1184 19.5253 67.8944 19.464 67.6437 19.464C67.393 19.464 67.1664 19.528 66.9637 19.656C66.7664 19.7787 66.6117 19.9493 66.4997 20.168C66.3877 20.3813 66.3344 20.624 66.3397 20.896C66.3344 21.168 66.3877 21.4133 66.4997 21.632C66.6117 21.8453 66.7664 22.016 66.9637 22.144C67.1664 22.2667 67.393 22.328 67.6437 22.328ZM71.5533 23L70.1213 18.8L70.9533 18.792L71.9773 21.936L71.7933 21.92L72.9053 19.464H73.4013L74.5213 21.928L74.3053 21.944L75.3373 18.8H76.1693L74.7533 23H74.1853L73.0173 20.328L73.2013 20.352L72.1133 23H71.5533ZM76.9198 23V18.8H77.7438V19.664L77.5998 19.76C77.6531 19.5733 77.7571 19.4027 77.9118 19.248C78.0664 19.088 78.2504 18.96 78.4638 18.864C78.6771 18.7627 78.8958 18.712 79.1198 18.712C79.4398 18.712 79.7064 18.776 79.9198 18.904C80.1331 19.0267 80.2931 19.216 80.3998 19.472C80.5064 19.728 80.5598 20.0507 80.5598 20.44V23H79.7358V20.496C79.7358 20.256 79.7038 20.0587 79.6398 19.904C79.5758 19.744 79.4771 19.6293 79.3438 19.56C79.2104 19.4853 79.0451 19.4533 78.8478 19.464C78.6878 19.464 78.5411 19.4907 78.4078 19.544C78.2744 19.592 78.1571 19.6613 78.0558 19.752C77.9598 19.8427 77.8824 19.9493 77.8238 20.072C77.7704 20.1893 77.7438 20.3173 77.7438 20.456V23H77.3358C77.2664 23 77.1971 23 77.1278 23C77.0584 23 76.9891 23 76.9198 23ZM81.6936 23V17.08H82.5176V23H81.6936ZM85.4953 23.08C85.0846 23.08 84.7166 22.9867 84.3913 22.8C84.0713 22.608 83.8179 22.3493 83.6313 22.024C83.4446 21.6933 83.3513 21.3173 83.3513 20.896C83.3513 20.4747 83.4446 20.1013 83.6313 19.776C83.8179 19.4453 84.0713 19.1867 84.3913 19C84.7166 18.808 85.0846 18.712 85.4953 18.712C85.9006 18.712 86.2633 18.808 86.5833 19C86.9086 19.1867 87.1646 19.4453 87.3513 19.776C87.5379 20.1013 87.6313 20.4747 87.6313 20.896C87.6313 21.3173 87.5379 21.6933 87.3513 22.024C87.1646 22.3493 86.9086 22.608 86.5833 22.8C86.2633 22.9867 85.9006 23.08 85.4953 23.08ZM85.4953 22.328C85.7459 22.328 85.9699 22.2667 86.1673 22.144C86.3646 22.016 86.5193 21.8453 86.6313 21.632C86.7433 21.4133 86.7966 21.168 86.7913 20.896C86.7966 20.6187 86.7433 20.3733 86.6313 20.16C86.5193 19.9413 86.3646 19.7707 86.1673 19.648C85.9699 19.5253 85.7459 19.464 85.4953 19.464C85.2446 19.464 85.0179 19.528 84.8153 19.656C84.6179 19.7787 84.4633 19.9493 84.3513 20.168C84.2393 20.3813 84.1859 20.624 84.1913 20.896C84.1859 21.168 84.2393 21.4133 84.3513 21.632C84.4633 21.8453 84.6179 22.016 84.8153 22.144C85.0179 22.2667 85.2446 22.328 85.4953 22.328ZM90.1451 23.08C89.7985 23.08 89.4811 22.984 89.1931 22.792C88.9105 22.6 88.6838 22.3387 88.5131 22.008C88.3425 21.6773 88.2571 21.304 88.2571 20.888C88.2571 20.4667 88.3425 20.0933 88.5131 19.768C88.6891 19.4373 88.9238 19.1787 89.2171 18.992C89.5158 18.8053 89.8491 18.712 90.2171 18.712C90.4358 18.712 90.6358 18.744 90.8171 18.808C90.9985 18.872 91.1558 18.9627 91.2891 19.08C91.4278 19.192 91.5398 19.3227 91.6251 19.472C91.7158 19.6213 91.7718 19.7813 91.7931 19.952L91.6091 19.888V18.8H92.4411V23H91.6091V22L91.8011 21.944C91.7691 22.088 91.7025 22.2293 91.6011 22.368C91.5051 22.5013 91.3798 22.6213 91.2251 22.728C91.0758 22.8347 90.9078 22.92 90.7211 22.984C90.5398 23.048 90.3478 23.08 90.1451 23.08ZM90.3611 22.32C90.6118 22.32 90.8331 22.2587 91.0251 22.136C91.2171 22.0133 91.3665 21.8453 91.4731 21.632C91.5851 21.4133 91.6411 21.1653 91.6411 20.888C91.6411 20.616 91.5851 20.3733 91.4731 20.16C91.3665 19.9467 91.2171 19.7787 91.0251 19.656C90.8331 19.5333 90.6118 19.472 90.3611 19.472C90.1158 19.472 89.8971 19.5333 89.7051 19.656C89.5185 19.7787 89.3691 19.9467 89.2571 20.16C89.1505 20.3733 89.0971 20.616 89.0971 20.888C89.0971 21.1653 89.1505 21.4133 89.2571 21.632C89.3691 21.8453 89.5185 22.0133 89.7051 22.136C89.8971 22.2587 90.1158 22.32 90.3611 22.32ZM95.3436 23.08C94.9596 23.08 94.6156 22.9867 94.3116 22.8C94.013 22.608 93.7756 22.3493 93.5996 22.024C93.4236 21.6933 93.3356 21.3173 93.3356 20.896C93.3356 20.4747 93.421 20.1013 93.5916 19.776C93.7676 19.4453 94.005 19.1867 94.3036 19C94.6023 18.808 94.941 18.712 95.3196 18.712C95.5276 18.712 95.7276 18.7467 95.9196 18.816C96.117 18.88 96.293 18.9707 96.4476 19.088C96.6023 19.2 96.7223 19.3253 96.8076 19.464C96.8983 19.5973 96.9436 19.7333 96.9436 19.872L96.7036 19.888V17.08H97.5276V23H96.7036V22H96.8636C96.8636 22.128 96.821 22.256 96.7356 22.384C96.6503 22.5067 96.5356 22.6213 96.3916 22.728C96.253 22.8347 96.0903 22.92 95.9036 22.984C95.7223 23.048 95.5356 23.08 95.3436 23.08ZM95.4556 22.368C95.7063 22.368 95.9276 22.304 96.1196 22.176C96.3116 22.048 96.461 21.8747 96.5676 21.656C96.6796 21.432 96.7356 21.1787 96.7356 20.896C96.7356 20.6133 96.6796 20.3627 96.5676 20.144C96.461 19.92 96.3116 19.744 96.1196 19.616C95.9276 19.488 95.7063 19.424 95.4556 19.424C95.205 19.424 94.9836 19.488 94.7916 19.616C94.5996 19.744 94.4476 19.92 94.3356 20.144C94.229 20.3627 94.1756 20.6133 94.1756 20.896C94.1756 21.1787 94.229 21.432 94.3356 21.656C94.4476 21.8747 94.5996 22.048 94.7916 22.176C94.9836 22.304 95.205 22.368 95.4556 22.368ZM101.36 23V18.328C101.36 18.088 101.413 17.8747 101.52 17.688C101.627 17.5013 101.773 17.3547 101.96 17.248C102.147 17.1413 102.363 17.088 102.608 17.088C102.779 17.088 102.939 17.12 103.088 17.184C103.237 17.248 103.357 17.3333 103.448 17.44L103.168 18.072C103.099 18.008 103.021 17.9573 102.936 17.92C102.856 17.8773 102.779 17.856 102.704 17.856C102.592 17.856 102.496 17.8747 102.416 17.912C102.341 17.944 102.285 17.9973 102.248 18.072C102.211 18.1413 102.192 18.2267 102.192 18.328V23H101.776C101.707 23 101.637 23 101.568 23C101.499 23 101.429 23 101.36 23ZM100.688 19.632V18.872H103.184V19.632H100.688ZM104.045 23V18.8H104.877V20.12L104.797 19.8C104.855 19.5973 104.954 19.4133 105.093 19.248C105.237 19.0827 105.399 18.952 105.581 18.856C105.767 18.76 105.959 18.712 106.157 18.712C106.247 18.712 106.333 18.72 106.413 18.736C106.498 18.752 106.565 18.7707 106.613 18.792L106.397 19.688C106.333 19.6613 106.261 19.64 106.181 19.624C106.106 19.6027 106.031 19.592 105.957 19.592C105.813 19.592 105.674 19.6213 105.541 19.68C105.413 19.7333 105.298 19.8107 105.197 19.912C105.101 20.008 105.023 20.1227 104.965 20.256C104.906 20.384 104.877 20.5253 104.877 20.68V23H104.045ZM108.98 23.08C108.569 23.08 108.201 22.9867 107.876 22.8C107.556 22.608 107.302 22.3493 107.116 22.024C106.929 21.6933 106.836 21.3173 106.836 20.896C106.836 20.4747 106.929 20.1013 107.116 19.776C107.302 19.4453 107.556 19.1867 107.876 19C108.201 18.808 108.569 18.712 108.98 18.712C109.385 18.712 109.748 18.808 110.068 19C110.393 19.1867 110.649 19.4453 110.836 19.776C111.022 20.1013 111.116 20.4747 111.116 20.896C111.116 21.3173 111.022 21.6933 110.836 22.024C110.649 22.3493 110.393 22.608 110.068 22.8C109.748 22.9867 109.385 23.08 108.98 23.08ZM108.98 22.328C109.23 22.328 109.454 22.2667 109.652 22.144C109.849 22.016 110.004 21.8453 110.116 21.632C110.228 21.4133 110.281 21.168 110.276 20.896C110.281 20.6187 110.228 20.3733 110.116 20.16C110.004 19.9413 109.849 19.7707 109.652 19.648C109.454 19.5253 109.23 19.464 108.98 19.464C108.729 19.464 108.502 19.528 108.3 19.656C108.102 19.7787 107.948 19.9493 107.836 20.168C107.724 20.3813 107.67 20.624 107.676 20.896C107.67 21.168 107.724 21.4133 107.836 21.632C107.948 21.8453 108.102 22.016 108.3 22.144C108.502 22.2667 108.729 22.328 108.98 22.328ZM111.998 23V18.8H112.83V19.696L112.678 19.792C112.72 19.6533 112.787 19.52 112.878 19.392C112.974 19.264 113.088 19.152 113.222 19.056C113.36 18.9547 113.507 18.8747 113.662 18.816C113.822 18.7573 113.984 18.728 114.15 18.728C114.39 18.728 114.6 18.768 114.782 18.848C114.963 18.928 115.112 19.048 115.23 19.208C115.347 19.368 115.432 19.568 115.486 19.808L115.358 19.776L115.414 19.64C115.472 19.5173 115.552 19.4027 115.654 19.296C115.76 19.184 115.88 19.0853 116.014 19C116.147 18.9147 116.288 18.848 116.438 18.8C116.587 18.752 116.734 18.728 116.878 18.728C117.192 18.728 117.451 18.792 117.654 18.92C117.862 19.048 118.016 19.2427 118.118 19.504C118.224 19.7653 118.278 20.0907 118.278 20.48V23H117.446V20.528C117.446 20.288 117.414 20.0933 117.35 19.944C117.291 19.7893 117.2 19.6747 117.078 19.6C116.955 19.5253 116.798 19.488 116.606 19.488C116.456 19.488 116.315 19.5147 116.182 19.568C116.054 19.616 115.942 19.6853 115.845 19.776C115.75 19.8667 115.675 19.9733 115.622 20.096C115.568 20.2133 115.542 20.344 115.542 20.488V23H114.71V20.512C114.71 20.2933 114.678 20.1093 114.614 19.96C114.55 19.8053 114.456 19.688 114.334 19.608C114.211 19.528 114.062 19.488 113.886 19.488C113.736 19.488 113.598 19.5147 113.47 19.568C113.342 19.616 113.23 19.6853 113.134 19.776C113.038 19.8613 112.963 19.9653 112.91 20.088C112.856 20.2053 112.83 20.3333 112.83 20.472V23H111.998Z" fill="#898989"/>
<path d="M59.3371 40L62.5891 31.6H63.9091L67.1371 40H65.7571L63.8371 34.936C63.8131 34.88 63.7651 34.744 63.6931 34.528C63.6291 34.312 63.5531 34.072 63.4651 33.808C63.3771 33.544 63.2971 33.304 63.2251 33.088C63.1531 32.864 63.1051 32.72 63.0811 32.656L63.3571 32.644C63.3091 32.78 63.2491 32.952 63.1771 33.16C63.1131 33.368 63.0411 33.588 62.9611 33.82C62.8891 34.052 62.8171 34.272 62.7451 34.48C62.6731 34.68 62.6131 34.848 62.5651 34.984L60.6571 40H59.3371ZM60.7771 37.912L61.2571 36.664H65.0731L65.6251 37.912H60.7771ZM68.3035 42.64V33.7H69.5515V35.14L69.3595 35.032C69.4075 34.792 69.5435 34.564 69.7675 34.348C69.9915 34.124 70.2635 33.944 70.5835 33.808C70.9115 33.664 71.2475 33.592 71.5915 33.592C72.1595 33.592 72.6635 33.732 73.1035 34.012C73.5435 34.292 73.8915 34.676 74.1475 35.164C74.4035 35.652 74.5315 36.212 74.5315 36.844C74.5315 37.468 74.4035 38.028 74.1475 38.524C73.8995 39.012 73.5555 39.4 73.1155 39.688C72.6755 39.968 72.1795 40.108 71.6275 40.108C71.2595 40.108 70.9035 40.036 70.5595 39.892C70.2155 39.74 69.9235 39.548 69.6835 39.316C69.4435 39.084 69.2955 38.844 69.2395 38.596L69.5515 38.428V42.64H68.3035ZM71.4235 38.968C71.7915 38.968 72.1195 38.876 72.4075 38.692C72.6955 38.508 72.9235 38.256 73.0915 37.936C73.2595 37.616 73.3435 37.252 73.3435 36.844C73.3435 36.436 73.2595 36.076 73.0915 35.764C72.9315 35.444 72.7075 35.192 72.4195 35.008C72.1315 34.824 71.7995 34.732 71.4235 34.732C71.0475 34.732 70.7155 34.824 70.4275 35.008C70.1395 35.184 69.9115 35.432 69.7435 35.752C69.5755 36.072 69.4915 36.436 69.4915 36.844C69.4915 37.252 69.5755 37.616 69.7435 37.936C69.9115 38.256 70.1395 38.508 70.4275 38.692C70.7155 38.876 71.0475 38.968 71.4235 38.968ZM75.8738 42.64V33.7H77.1218V35.14L76.9298 35.032C76.9778 34.792 77.1138 34.564 77.3378 34.348C77.5618 34.124 77.8338 33.944 78.1538 33.808C78.4818 33.664 78.8178 33.592 79.1618 33.592C79.7298 33.592 80.2338 33.732 80.6738 34.012C81.1138 34.292 81.4618 34.676 81.7178 35.164C81.9738 35.652 82.1018 36.212 82.1018 36.844C82.1018 37.468 81.9738 38.028 81.7178 38.524C81.4698 39.012 81.1258 39.4 80.6858 39.688C80.2458 39.968 79.7498 40.108 79.1978 40.108C78.8298 40.108 78.4738 40.036 78.1298 39.892C77.7858 39.74 77.4938 39.548 77.2538 39.316C77.0138 39.084 76.8658 38.844 76.8098 38.596L77.1218 38.428V42.64H75.8738ZM78.9938 38.968C79.3618 38.968 79.6898 38.876 79.9778 38.692C80.2658 38.508 80.4938 38.256 80.6618 37.936C80.8298 37.616 80.9138 37.252 80.9138 36.844C80.9138 36.436 80.8298 36.076 80.6618 35.764C80.5018 35.444 80.2778 35.192 79.9898 35.008C79.7018 34.824 79.3698 34.732 78.9938 34.732C78.6178 34.732 78.2858 34.824 77.9978 35.008C77.7098 35.184 77.4818 35.432 77.3138 35.752C77.1458 36.072 77.0618 36.436 77.0618 36.844C77.0618 37.252 77.1458 37.616 77.3138 37.936C77.4818 38.256 77.7098 38.508 77.9978 38.692C78.2858 38.876 78.6178 38.968 78.9938 38.968ZM89.7114 40.12C89.2554 40.12 88.8314 40.06 88.4394 39.94C88.0554 39.82 87.7034 39.64 87.3834 39.4C87.0714 39.152 86.7914 38.848 86.5434 38.488L87.4314 37.468C87.8234 38.028 88.1994 38.416 88.5594 38.632C88.9194 38.848 89.3474 38.956 89.8434 38.956C90.1474 38.956 90.4234 38.908 90.6714 38.812C90.9194 38.716 91.1154 38.584 91.2594 38.416C91.4034 38.248 91.4754 38.056 91.4754 37.84C91.4754 37.696 91.4514 37.56 91.4034 37.432C91.3554 37.304 91.2794 37.188 91.1754 37.084C91.0794 36.98 90.9514 36.884 90.7914 36.796C90.6394 36.708 90.4594 36.632 90.2514 36.568C90.0434 36.496 89.8034 36.436 89.5314 36.388C89.0994 36.3 88.7234 36.184 88.4034 36.04C88.0834 35.896 87.8154 35.716 87.5994 35.5C87.3834 35.284 87.2234 35.04 87.1194 34.768C87.0154 34.488 86.9634 34.176 86.9634 33.832C86.9634 33.496 87.0354 33.184 87.1794 32.896C87.3314 32.608 87.5354 32.36 87.7914 32.152C88.0554 31.936 88.3634 31.772 88.7154 31.66C89.0674 31.54 89.4474 31.48 89.8554 31.48C90.2874 31.48 90.6834 31.536 91.0434 31.648C91.4034 31.76 91.7234 31.928 92.0034 32.152C92.2834 32.368 92.5154 32.636 92.6994 32.956L91.7874 33.856C91.6274 33.592 91.4474 33.372 91.2474 33.196C91.0474 33.012 90.8274 32.876 90.5874 32.788C90.3474 32.692 90.0914 32.644 89.8194 32.644C89.5074 32.644 89.2354 32.692 89.0034 32.788C88.7714 32.884 88.5874 33.02 88.4514 33.196C88.3234 33.364 88.2594 33.564 88.2594 33.796C88.2594 33.964 88.2914 34.12 88.3554 34.264C88.4194 34.4 88.5154 34.524 88.6434 34.636C88.7794 34.74 88.9594 34.836 89.1834 34.924C89.4074 35.004 89.6754 35.076 89.9874 35.14C90.4274 35.236 90.8194 35.36 91.1634 35.512C91.5074 35.656 91.7994 35.828 92.0394 36.028C92.2794 36.228 92.4594 36.452 92.5794 36.7C92.7074 36.948 92.7714 37.216 92.7714 37.504C92.7714 38.04 92.6474 38.504 92.3994 38.896C92.1514 39.288 91.7994 39.592 91.3434 39.808C90.8874 40.016 90.3434 40.12 89.7114 40.12ZM95.0756 40V32.092H96.3116V40H95.0756ZM93.7676 34.9V33.7H97.7756V34.9H93.7676ZM101.675 40.12C101.059 40.12 100.507 39.98 100.019 39.7C99.5385 39.412 99.1585 39.024 98.8785 38.536C98.5985 38.04 98.4585 37.476 98.4585 36.844C98.4585 36.212 98.5985 35.652 98.8785 35.164C99.1585 34.668 99.5385 34.28 100.019 34C100.507 33.712 101.059 33.568 101.675 33.568C102.283 33.568 102.827 33.712 103.307 34C103.795 34.28 104.179 34.668 104.459 35.164C104.739 35.652 104.879 36.212 104.879 36.844C104.879 37.476 104.739 38.04 104.459 38.536C104.179 39.024 103.795 39.412 103.307 39.7C102.827 39.98 102.283 40.12 101.675 40.12ZM101.675 38.992C102.051 38.992 102.387 38.9 102.683 38.716C102.979 38.524 103.211 38.268 103.379 37.948C103.547 37.62 103.627 37.252 103.619 36.844C103.627 36.428 103.547 36.06 103.379 35.74C103.211 35.412 102.979 35.156 102.683 34.972C102.387 34.788 102.051 34.696 101.675 34.696C101.299 34.696 100.959 34.792 100.655 34.984C100.359 35.168 100.127 35.424 99.9585 35.752C99.7905 36.072 99.7105 36.436 99.7185 36.844C99.7105 37.252 99.7905 37.62 99.9585 37.948C100.127 38.268 100.359 38.524 100.655 38.716C100.959 38.9 101.299 38.992 101.675 38.992ZM106.225 40V33.7H107.473V35.68L107.353 35.2C107.441 34.896 107.589 34.62 107.797 34.372C108.013 34.124 108.257 33.928 108.529 33.784C108.809 33.64 109.097 33.568 109.393 33.568C109.529 33.568 109.657 33.58 109.777 33.604C109.905 33.628 110.005 33.656 110.077 33.688L109.753 35.032C109.657 34.992 109.549 34.96 109.429 34.936C109.317 34.904 109.205 34.888 109.093 34.888C108.877 34.888 108.669 34.932 108.469 35.02C108.277 35.1 108.105 35.216 107.953 35.368C107.809 35.512 107.693 35.684 107.605 35.884C107.517 36.076 107.473 36.288 107.473 36.52V40H106.225ZM113.736 40.12C113.088 40.12 112.512 39.984 112.008 39.712C111.512 39.432 111.12 39.052 110.832 38.572C110.552 38.092 110.412 37.54 110.412 36.916C110.412 36.42 110.492 35.968 110.652 35.56C110.812 35.152 111.032 34.8 111.312 34.504C111.6 34.2 111.94 33.968 112.332 33.808C112.732 33.64 113.164 33.556 113.628 33.556C114.036 33.556 114.416 33.636 114.768 33.796C115.12 33.948 115.424 34.16 115.68 34.432C115.944 34.704 116.144 35.028 116.28 35.404C116.424 35.772 116.492 36.176 116.484 36.616L116.472 37.144H111.324L111.048 36.16H115.404L115.224 36.364V36.076C115.2 35.812 115.112 35.576 114.96 35.368C114.808 35.16 114.616 34.996 114.384 34.876C114.152 34.756 113.9 34.696 113.628 34.696C113.196 34.696 112.832 34.78 112.536 34.948C112.24 35.108 112.016 35.348 111.864 35.668C111.712 35.98 111.636 36.368 111.636 36.832C111.636 37.272 111.728 37.656 111.912 37.984C112.096 38.304 112.356 38.552 112.692 38.728C113.028 38.904 113.416 38.992 113.856 38.992C114.168 38.992 114.456 38.94 114.72 38.836C114.992 38.732 115.284 38.544 115.596 38.272L116.22 39.148C116.028 39.34 115.792 39.508 115.512 39.652C115.24 39.796 114.948 39.912 114.636 40C114.332 40.08 114.032 40.12 113.736 40.12Z" fill="#FF914D"/>
<rect x="1" y="1" width="148" height="56" rx="28" stroke="#FF914D" stroke-width="0.7"/>
</svg>
