<svg width="171" height="66" viewBox="0 0 171 66" fill="none" xmlns="http://www.w3.org/2000/svg">
<rect x="1" y="1" width="169.5" height="64" rx="32" fill="white"/>
<path d="M33.6394 23.3453C33.1289 23.038 32.5205 23.0105 31.99 23.2663L40.886 32.1814L43.7948 29.2591L33.6394 23.3453ZM31.1726 24.0914C31.0604 24.3291 31 24.5934 31 24.8655V41.1731C31 41.4463 31.0608 41.7067 31.1742 41.9393L40.0667 33.0045L31.1726 24.0914ZM40.8872 33.8265L32.0055 42.7505C32.2412 42.8596 32.4919 42.9072 32.7423 42.9072C33.0515 42.9072 33.36 42.8333 33.6394 42.6653L43.7967 36.7426L40.8872 33.8265ZM47.6625 31.5115C47.659 31.5092 47.6552 31.5068 47.6517 31.5049L44.832 29.8628L41.7061 33.0034L44.8339 36.1377C44.8339 36.1377 47.659 34.4906 47.6625 34.4887C48.1869 34.1702 48.5 33.6137 48.5 32.9999C48.5 32.3861 48.1869 31.8296 47.6625 31.5115Z" fill="#FF914D"/>
<path d="M59.7241 24.5V17.5H62.4641C62.9641 17.5 63.4141 17.5833 63.8141 17.75C64.2208 17.9167 64.5675 18.1567 64.8541 18.47C65.1408 18.7833 65.3608 19.1533 65.5141 19.58C65.6675 20.0067 65.7441 20.48 65.7441 21C65.7441 21.52 65.6675 21.9967 65.5141 22.43C65.3608 22.8567 65.1408 23.2267 64.8541 23.54C64.5741 23.8467 64.2308 24.0833 63.8241 24.25C63.4175 24.4167 62.9641 24.5 62.4641 24.5H59.7241ZM60.8041 23.57L60.7741 23.46H62.4141C62.7675 23.46 63.0808 23.4033 63.3541 23.29C63.6341 23.1767 63.8675 23.0167 64.0541 22.81C64.2475 22.5967 64.3941 22.3367 64.4941 22.03C64.5941 21.7233 64.6441 21.38 64.6441 21C64.6441 20.62 64.5941 20.28 64.4941 19.98C64.3941 19.6733 64.2475 19.4133 64.0541 19.2C63.8608 18.9867 63.6275 18.8233 63.3541 18.71C63.0808 18.5967 62.7675 18.54 62.4141 18.54H60.7441L60.8041 18.45V23.57ZM69.3046 24.6C68.7913 24.6 68.3313 24.4833 67.9246 24.25C67.5246 24.01 67.2079 23.6867 66.9746 23.28C66.7413 22.8667 66.6246 22.3967 66.6246 21.87C66.6246 21.3433 66.7413 20.8767 66.9746 20.47C67.2079 20.0567 67.5246 19.7333 67.9246 19.5C68.3313 19.26 68.7913 19.14 69.3046 19.14C69.8113 19.14 70.2646 19.26 70.6646 19.5C71.0713 19.7333 71.3913 20.0567 71.6246 20.47C71.8579 20.8767 71.9746 21.3433 71.9746 21.87C71.9746 22.3967 71.8579 22.8667 71.6246 23.28C71.3913 23.6867 71.0713 24.01 70.6646 24.25C70.2646 24.4833 69.8113 24.6 69.3046 24.6ZM69.3046 23.66C69.6179 23.66 69.8979 23.5833 70.1446 23.43C70.3913 23.27 70.5846 23.0567 70.7246 22.79C70.8646 22.5167 70.9313 22.21 70.9246 21.87C70.9313 21.5233 70.8646 21.2167 70.7246 20.95C70.5846 20.6767 70.3913 20.4633 70.1446 20.31C69.8979 20.1567 69.6179 20.08 69.3046 20.08C68.9913 20.08 68.7079 20.16 68.4546 20.32C68.2079 20.4733 68.0146 20.6867 67.8746 20.96C67.7346 21.2267 67.6679 21.53 67.6746 21.87C67.6679 22.21 67.7346 22.5167 67.8746 22.79C68.0146 23.0567 68.2079 23.27 68.4546 23.43C68.7079 23.5833 68.9913 23.66 69.3046 23.66ZM74.1916 24.5L72.4016 19.25L73.4416 19.24L74.7216 23.17L74.4916 23.15L75.8816 20.08H76.5016L77.9016 23.16L77.6316 23.18L78.9216 19.25H79.9616L78.1916 24.5H77.4816L76.0216 21.16L76.2516 21.19L74.8916 24.5H74.1916ZM80.8997 24.5V19.25H81.9297V20.33L81.7497 20.45C81.8164 20.2167 81.9464 20.0033 82.1397 19.81C82.333 19.61 82.563 19.45 82.8297 19.33C83.0964 19.2033 83.3697 19.14 83.6497 19.14C84.0497 19.14 84.383 19.22 84.6497 19.38C84.9164 19.5333 85.1164 19.77 85.2497 20.09C85.383 20.41 85.4497 20.8133 85.4497 21.3V24.5H84.4197V21.37C84.4197 21.07 84.3797 20.8233 84.2997 20.63C84.2197 20.43 84.0964 20.2867 83.9297 20.2C83.763 20.1067 83.5564 20.0667 83.3097 20.08C83.1097 20.08 82.9264 20.1133 82.7597 20.18C82.593 20.24 82.4464 20.3267 82.3197 20.44C82.1997 20.5533 82.103 20.6867 82.0297 20.84C81.963 20.9867 81.9297 21.1467 81.9297 21.32V24.5H81.4197C81.333 24.5 81.2464 24.5 81.1597 24.5C81.073 24.5 80.9864 24.5 80.8997 24.5ZM86.867 24.5V17.1H87.897V24.5H86.867ZM91.6191 24.6C91.1057 24.6 90.6457 24.4833 90.2391 24.25C89.8391 24.01 89.5224 23.6867 89.2891 23.28C89.0557 22.8667 88.9391 22.3967 88.9391 21.87C88.9391 21.3433 89.0557 20.8767 89.2891 20.47C89.5224 20.0567 89.8391 19.7333 90.2391 19.5C90.6457 19.26 91.1057 19.14 91.6191 19.14C92.1257 19.14 92.5791 19.26 92.9791 19.5C93.3857 19.7333 93.7057 20.0567 93.9391 20.47C94.1724 20.8767 94.2891 21.3433 94.2891 21.87C94.2891 22.3967 94.1724 22.8667 93.9391 23.28C93.7057 23.6867 93.3857 24.01 92.9791 24.25C92.5791 24.4833 92.1257 24.6 91.6191 24.6ZM91.6191 23.66C91.9324 23.66 92.2124 23.5833 92.4591 23.43C92.7057 23.27 92.8991 23.0567 93.0391 22.79C93.1791 22.5167 93.2457 22.21 93.2391 21.87C93.2457 21.5233 93.1791 21.2167 93.0391 20.95C92.8991 20.6767 92.7057 20.4633 92.4591 20.31C92.2124 20.1567 91.9324 20.08 91.6191 20.08C91.3057 20.08 91.0224 20.16 90.7691 20.32C90.5224 20.4733 90.3291 20.6867 90.1891 20.96C90.0491 21.2267 89.9824 21.53 89.9891 21.87C89.9824 22.21 90.0491 22.5167 90.1891 22.79C90.3291 23.0567 90.5224 23.27 90.7691 23.43C91.0224 23.5833 91.3057 23.66 91.6191 23.66ZM97.4314 24.6C96.9981 24.6 96.6014 24.48 96.2414 24.24C95.8881 24 95.6047 23.6733 95.3914 23.26C95.1781 22.8467 95.0714 22.38 95.0714 21.86C95.0714 21.3333 95.1781 20.8667 95.3914 20.46C95.6114 20.0467 95.9047 19.7233 96.2714 19.49C96.6447 19.2567 97.0614 19.14 97.5214 19.14C97.7947 19.14 98.0447 19.18 98.2714 19.26C98.4981 19.34 98.6947 19.4533 98.8614 19.6C99.0347 19.74 99.1747 19.9033 99.2814 20.09C99.3947 20.2767 99.4647 20.4767 99.4914 20.69L99.2614 20.61V19.25H100.301V24.5H99.2614V23.25L99.5014 23.18C99.4614 23.36 99.3781 23.5367 99.2514 23.71C99.1314 23.8767 98.9747 24.0267 98.7814 24.16C98.5947 24.2933 98.3847 24.4 98.1514 24.48C97.9247 24.56 97.6847 24.6 97.4314 24.6ZM97.7014 23.65C98.0147 23.65 98.2914 23.5733 98.5314 23.42C98.7714 23.2667 98.9581 23.0567 99.0914 22.79C99.2314 22.5167 99.3014 22.2067 99.3014 21.86C99.3014 21.52 99.2314 21.2167 99.0914 20.95C98.9581 20.6833 98.7714 20.4733 98.5314 20.32C98.2914 20.1667 98.0147 20.09 97.7014 20.09C97.3947 20.09 97.1214 20.1667 96.8814 20.32C96.6481 20.4733 96.4614 20.6833 96.3214 20.95C96.1881 21.2167 96.1214 21.52 96.1214 21.86C96.1214 22.2067 96.1881 22.5167 96.3214 22.79C96.4614 23.0567 96.6481 23.2667 96.8814 23.42C97.1214 23.5733 97.3947 23.65 97.7014 23.65ZM103.93 24.6C103.45 24.6 103.02 24.4833 102.64 24.25C102.266 24.01 101.97 23.6867 101.75 23.28C101.53 22.8667 101.42 22.3967 101.42 21.87C101.42 21.3433 101.526 20.8767 101.74 20.47C101.96 20.0567 102.256 19.7333 102.63 19.5C103.003 19.26 103.426 19.14 103.9 19.14C104.16 19.14 104.41 19.1833 104.65 19.27C104.896 19.35 105.116 19.4633 105.31 19.61C105.503 19.75 105.653 19.9067 105.76 20.08C105.873 20.2467 105.93 20.4167 105.93 20.59L105.63 20.61V17.1H106.66V24.5H105.63V23.25H105.83C105.83 23.41 105.776 23.57 105.67 23.73C105.563 23.8833 105.42 24.0267 105.24 24.16C105.066 24.2933 104.863 24.4 104.63 24.48C104.403 24.56 104.17 24.6 103.93 24.6ZM104.07 23.71C104.383 23.71 104.66 23.63 104.9 23.47C105.14 23.31 105.326 23.0933 105.46 22.82C105.6 22.54 105.67 22.2233 105.67 21.87C105.67 21.5167 105.6 21.2033 105.46 20.93C105.326 20.65 105.14 20.43 104.9 20.27C104.66 20.11 104.383 20.03 104.07 20.03C103.756 20.03 103.48 20.11 103.24 20.27C103 20.43 102.81 20.65 102.67 20.93C102.536 21.2033 102.47 21.5167 102.47 21.87C102.47 22.2233 102.536 22.54 102.67 22.82C102.81 23.0933 103 23.31 103.24 23.47C103.48 23.63 103.756 23.71 104.07 23.71ZM111.45 24.5V18.66C111.45 18.36 111.517 18.0933 111.65 17.86C111.783 17.6267 111.967 17.4433 112.2 17.31C112.433 17.1767 112.703 17.11 113.01 17.11C113.223 17.11 113.423 17.15 113.61 17.23C113.797 17.31 113.947 17.4167 114.06 17.55L113.71 18.34C113.623 18.26 113.527 18.1967 113.42 18.15C113.32 18.0967 113.223 18.07 113.13 18.07C112.99 18.07 112.87 18.0933 112.77 18.14C112.677 18.18 112.607 18.2467 112.56 18.34C112.513 18.4267 112.49 18.5333 112.49 18.66V24.5H111.97C111.883 24.5 111.797 24.5 111.71 24.5C111.623 24.5 111.537 24.5 111.45 24.5ZM110.61 20.29V19.34H113.73V20.29H110.61ZM114.806 24.5V19.25H115.846V20.9L115.746 20.5C115.819 20.2467 115.943 20.0167 116.116 19.81C116.296 19.6033 116.499 19.44 116.726 19.32C116.959 19.2 117.199 19.14 117.446 19.14C117.559 19.14 117.666 19.15 117.766 19.17C117.873 19.19 117.956 19.2133 118.016 19.24L117.746 20.36C117.666 20.3267 117.576 20.3 117.476 20.28C117.383 20.2533 117.289 20.24 117.196 20.24C117.016 20.24 116.843 20.2767 116.676 20.35C116.516 20.4167 116.373 20.5133 116.246 20.64C116.126 20.76 116.029 20.9033 115.956 21.07C115.883 21.23 115.846 21.4067 115.846 21.6V24.5H114.806ZM120.975 24.6C120.461 24.6 120.001 24.4833 119.595 24.25C119.195 24.01 118.878 23.6867 118.645 23.28C118.411 22.8667 118.295 22.3967 118.295 21.87C118.295 21.3433 118.411 20.8767 118.645 20.47C118.878 20.0567 119.195 19.7333 119.595 19.5C120.001 19.26 120.461 19.14 120.975 19.14C121.481 19.14 121.935 19.26 122.335 19.5C122.741 19.7333 123.061 20.0567 123.295 20.47C123.528 20.8767 123.645 21.3433 123.645 21.87C123.645 22.3967 123.528 22.8667 123.295 23.28C123.061 23.6867 122.741 24.01 122.335 24.25C121.935 24.4833 121.481 24.6 120.975 24.6ZM120.975 23.66C121.288 23.66 121.568 23.5833 121.815 23.43C122.061 23.27 122.255 23.0567 122.395 22.79C122.535 22.5167 122.601 22.21 122.595 21.87C122.601 21.5233 122.535 21.2167 122.395 20.95C122.255 20.6767 122.061 20.4633 121.815 20.31C121.568 20.1567 121.288 20.08 120.975 20.08C120.661 20.08 120.378 20.16 120.125 20.32C119.878 20.4733 119.685 20.6867 119.545 20.96C119.405 21.2267 119.338 21.53 119.345 21.87C119.338 22.21 119.405 22.5167 119.545 22.79C119.685 23.0567 119.878 23.27 120.125 23.43C120.378 23.5833 120.661 23.66 120.975 23.66ZM124.747 24.5V19.25H125.787V20.37L125.597 20.49C125.65 20.3167 125.734 20.15 125.847 19.99C125.967 19.83 126.11 19.69 126.277 19.57C126.45 19.4433 126.634 19.3433 126.827 19.27C127.027 19.1967 127.23 19.16 127.437 19.16C127.737 19.16 128 19.21 128.227 19.31C128.454 19.41 128.64 19.56 128.787 19.76C128.934 19.96 129.04 20.21 129.107 20.51L128.947 20.47L129.017 20.3C129.09 20.1467 129.19 20.0033 129.317 19.87C129.45 19.73 129.6 19.6067 129.767 19.5C129.934 19.3933 130.11 19.31 130.297 19.25C130.484 19.19 130.667 19.16 130.847 19.16C131.24 19.16 131.564 19.24 131.817 19.4C132.077 19.56 132.27 19.8033 132.397 20.13C132.53 20.4567 132.597 20.8633 132.597 21.35V24.5H131.557V21.41C131.557 21.11 131.517 20.8667 131.437 20.68C131.364 20.4867 131.25 20.3433 131.097 20.25C130.944 20.1567 130.747 20.11 130.507 20.11C130.32 20.11 130.144 20.1433 129.977 20.21C129.817 20.27 129.677 20.3567 129.557 20.47C129.437 20.5833 129.344 20.7167 129.277 20.87C129.21 21.0167 129.177 21.18 129.177 21.36V24.5H128.137V21.39C128.137 21.1167 128.097 20.8867 128.017 20.7C127.937 20.5067 127.82 20.36 127.667 20.26C127.514 20.16 127.327 20.11 127.107 20.11C126.92 20.11 126.747 20.1433 126.587 20.21C126.427 20.27 126.287 20.3567 126.167 20.47C126.047 20.5767 125.954 20.7067 125.887 20.86C125.82 21.0067 125.787 21.1667 125.787 21.34V24.5H124.747Z" fill="#898989"/>
<path d="M64.4435 47.64C63.7341 47.64 63.0715 47.514 62.4555 47.262C61.8395 47.0007 61.2981 46.6413 60.8315 46.184C60.3648 45.7267 60.0008 45.1947 59.7395 44.588C59.4875 43.972 59.3615 43.3093 59.3615 42.6C59.3615 41.9 59.4875 41.2467 59.7395 40.64C60.0008 40.0333 60.3601 39.506 60.8175 39.058C61.2841 38.6007 61.8255 38.246 62.4415 37.994C63.0575 37.742 63.7201 37.616 64.4295 37.616C64.9241 37.616 65.4048 37.686 65.8715 37.826C66.3475 37.966 66.7768 38.162 67.1595 38.414C67.5421 38.666 67.8548 38.9553 68.0975 39.282L67.1175 40.304C66.8375 40.0333 66.5481 39.8093 66.2495 39.632C65.9601 39.4547 65.6615 39.3193 65.3535 39.226C65.0455 39.1327 64.7375 39.086 64.4295 39.086C63.9255 39.086 63.4588 39.1747 63.0295 39.352C62.6095 39.5293 62.2361 39.7767 61.9095 40.094C61.5921 40.4113 61.3448 40.7847 61.1675 41.214C60.9901 41.634 60.9015 42.096 60.9015 42.6C60.9015 43.0853 60.9948 43.5473 61.1815 43.986C61.3681 44.4153 61.6248 44.7933 61.9515 45.12C62.2875 45.4467 62.6701 45.7033 63.0995 45.89C63.5381 46.0767 64.0001 46.17 64.4855 46.17C64.8495 46.17 65.1948 46.1187 65.5215 46.016C65.8481 45.904 66.1375 45.75 66.3895 45.554C66.6415 45.358 66.8375 45.134 66.9775 44.882C67.1175 44.6207 67.1875 44.3453 67.1875 44.056V43.776L67.3975 43.972H64.4015V42.474H68.7415C68.7601 42.5767 68.7741 42.6793 68.7835 42.782C68.7928 42.8753 68.7975 42.9687 68.7975 43.062C68.8068 43.146 68.8115 43.23 68.8115 43.314C68.8115 43.958 68.6995 44.546 68.4755 45.078C68.2515 45.6007 67.9388 46.0533 67.5375 46.436C67.1455 46.8187 66.6835 47.1173 66.1515 47.332C65.6288 47.5373 65.0595 47.64 64.4435 47.64ZM73.7202 47.64C73.0015 47.64 72.3575 47.4767 71.7882 47.15C71.2282 46.814 70.7849 46.3613 70.4582 45.792C70.1315 45.2133 69.9682 44.5553 69.9682 43.818C69.9682 43.0807 70.1315 42.4273 70.4582 41.858C70.7849 41.2793 71.2282 40.8267 71.7882 40.5C72.3575 40.164 73.0015 39.996 73.7202 39.996C74.4295 39.996 75.0642 40.164 75.6242 40.5C76.1935 40.8267 76.6415 41.2793 76.9682 41.858C77.2949 42.4273 77.4582 43.0807 77.4582 43.818C77.4582 44.5553 77.2949 45.2133 76.9682 45.792C76.6415 46.3613 76.1935 46.814 75.6242 47.15C75.0642 47.4767 74.4295 47.64 73.7202 47.64ZM73.7202 46.324C74.1589 46.324 74.5509 46.2167 74.8962 46.002C75.2415 45.778 75.5122 45.4793 75.7082 45.106C75.9042 44.7233 75.9975 44.294 75.9882 43.818C75.9975 43.3327 75.9042 42.9033 75.7082 42.53C75.5122 42.1473 75.2415 41.8487 74.8962 41.634C74.5509 41.4193 74.1589 41.312 73.7202 41.312C73.2815 41.312 72.8849 41.424 72.5302 41.648C72.1849 41.8627 71.9142 42.1613 71.7182 42.544C71.5222 42.9173 71.4289 43.342 71.4382 43.818C71.4289 44.294 71.5222 44.7233 71.7182 45.106C71.9142 45.4793 72.1849 45.778 72.5302 46.002C72.8849 46.2167 73.2815 46.324 73.7202 46.324ZM82.3335 47.64C81.6148 47.64 80.9708 47.4767 80.4015 47.15C79.8415 46.814 79.3982 46.3613 79.0715 45.792C78.7448 45.2133 78.5815 44.5553 78.5815 43.818C78.5815 43.0807 78.7448 42.4273 79.0715 41.858C79.3982 41.2793 79.8415 40.8267 80.4015 40.5C80.9708 40.164 81.6148 39.996 82.3335 39.996C83.0428 39.996 83.6775 40.164 84.2375 40.5C84.8068 40.8267 85.2548 41.2793 85.5815 41.858C85.9082 42.4273 86.0715 43.0807 86.0715 43.818C86.0715 44.5553 85.9082 45.2133 85.5815 45.792C85.2548 46.3613 84.8068 46.814 84.2375 47.15C83.6775 47.4767 83.0428 47.64 82.3335 47.64ZM82.3335 46.324C82.7722 46.324 83.1642 46.2167 83.5095 46.002C83.8548 45.778 84.1255 45.4793 84.3215 45.106C84.5175 44.7233 84.6108 44.294 84.6015 43.818C84.6108 43.3327 84.5175 42.9033 84.3215 42.53C84.1255 42.1473 83.8548 41.8487 83.5095 41.634C83.1642 41.4193 82.7722 41.312 82.3335 41.312C81.8948 41.312 81.4982 41.424 81.1435 41.648C80.7982 41.8627 80.5275 42.1613 80.3315 42.544C80.1355 42.9173 80.0422 43.342 80.0515 43.818C80.0422 44.294 80.1355 44.7233 80.3315 45.106C80.5275 45.4793 80.7982 45.778 81.1435 46.002C81.4982 46.2167 81.8948 46.324 82.3335 46.324ZM90.9328 50.72C90.4101 50.72 89.8874 50.636 89.3648 50.468C88.8514 50.3093 88.4361 50.0993 88.1188 49.838L88.6508 48.718C88.8374 48.858 89.0568 48.9793 89.3088 49.082C89.5608 49.194 89.8268 49.278 90.1068 49.334C90.3868 49.3993 90.6621 49.432 90.9328 49.432C91.4461 49.432 91.8754 49.348 92.2208 49.18C92.5661 49.012 92.8274 48.7647 93.0048 48.438C93.1821 48.1113 93.2708 47.7053 93.2708 47.22V45.806L93.4248 45.904C93.3781 46.1933 93.2241 46.4733 92.9628 46.744C92.7108 47.0053 92.3934 47.22 92.0108 47.388C91.6281 47.556 91.2361 47.64 90.8348 47.64C90.1348 47.64 89.5094 47.4767 88.9588 47.15C88.4174 46.814 87.9881 46.3613 87.6708 45.792C87.3534 45.2133 87.1948 44.5553 87.1948 43.818C87.1948 43.0807 87.3488 42.4273 87.6568 41.858C87.9741 41.2793 88.4034 40.8267 88.9448 40.5C89.4954 40.164 90.1114 39.996 90.7928 39.996C91.0728 39.996 91.3434 40.0333 91.6048 40.108C91.8661 40.1733 92.1088 40.2713 92.3328 40.402C92.5568 40.5233 92.7574 40.6587 92.9348 40.808C93.1121 40.9573 93.2568 41.116 93.3688 41.284C93.4808 41.452 93.5508 41.6107 93.5788 41.76L93.2708 41.872V40.15H94.7128V47.052C94.7128 47.64 94.6241 48.158 94.4468 48.606C94.2788 49.0633 94.0314 49.446 93.7048 49.754C93.3781 50.0713 92.9814 50.3093 92.5148 50.468C92.0481 50.636 91.5208 50.72 90.9328 50.72ZM90.9888 46.31C91.4461 46.31 91.8521 46.2027 92.2068 45.988C92.5614 45.7733 92.8368 45.4793 93.0328 45.106C93.2288 44.7327 93.3268 44.3033 93.3268 43.818C93.3268 43.3327 93.2241 42.9033 93.0188 42.53C92.8228 42.1473 92.5474 41.8487 92.1928 41.634C91.8474 41.4193 91.4461 41.312 90.9888 41.312C90.5408 41.312 90.1394 41.424 89.7848 41.648C89.4394 41.8627 89.1641 42.1613 88.9588 42.544C88.7628 42.9173 88.6648 43.342 88.6648 43.818C88.6648 44.294 88.7628 44.7233 88.9588 45.106C89.1641 45.4793 89.4394 45.7733 89.7848 45.988C90.1394 46.2027 90.5408 46.31 90.9888 46.31ZM96.7626 47.5V37.14H98.2046V47.5H96.7626ZM103.542 47.64C102.786 47.64 102.114 47.4813 101.526 47.164C100.947 46.8373 100.49 46.394 100.154 45.834C99.8268 45.274 99.6635 44.63 99.6635 43.902C99.6635 43.3233 99.7568 42.796 99.9435 42.32C100.13 41.844 100.387 41.4333 100.714 41.088C101.05 40.7333 101.446 40.4627 101.904 40.276C102.37 40.08 102.874 39.982 103.416 39.982C103.892 39.982 104.335 40.0753 104.746 40.262C105.156 40.4393 105.511 40.6867 105.81 41.004C106.118 41.3213 106.351 41.6993 106.51 42.138C106.678 42.5673 106.757 43.0387 106.748 43.552L106.734 44.168H100.728L100.406 43.02H105.488L105.278 43.258V42.922C105.25 42.614 105.147 42.3387 104.97 42.096C104.792 41.8533 104.568 41.662 104.298 41.522C104.027 41.382 103.733 41.312 103.416 41.312C102.912 41.312 102.487 41.41 102.142 41.606C101.796 41.7927 101.535 42.0727 101.358 42.446C101.18 42.81 101.092 43.2627 101.092 43.804C101.092 44.3173 101.199 44.7653 101.414 45.148C101.628 45.5213 101.932 45.8107 102.324 46.016C102.716 46.2213 103.168 46.324 103.682 46.324C104.046 46.324 104.382 46.2633 104.69 46.142C105.007 46.0207 105.348 45.8013 105.712 45.484L106.44 46.506C106.216 46.73 105.94 46.926 105.614 47.094C105.296 47.262 104.956 47.3973 104.592 47.5C104.237 47.5933 103.887 47.64 103.542 47.64ZM112.602 47.5V37.7H116.592C117.124 37.7 117.605 37.8353 118.034 38.106C118.473 38.3673 118.823 38.7267 119.084 39.184C119.346 39.6413 119.476 40.15 119.476 40.71C119.476 41.27 119.346 41.7787 119.084 42.236C118.823 42.6933 118.473 43.062 118.034 43.342C117.605 43.6127 117.124 43.748 116.592 43.748H114.114V47.5H112.602ZM114.114 42.292H116.564C116.816 42.292 117.045 42.222 117.25 42.082C117.456 41.9327 117.619 41.7413 117.74 41.508C117.871 41.2653 117.936 40.9993 117.936 40.71C117.936 40.4207 117.871 40.1593 117.74 39.926C117.619 39.6927 117.456 39.506 117.25 39.366C117.045 39.226 116.816 39.156 116.564 39.156H114.114V42.292ZM121.14 47.5V37.14H122.582V47.5H121.14ZM127.316 47.64C126.71 47.64 126.154 47.472 125.65 47.136C125.156 46.8 124.759 46.3427 124.46 45.764C124.162 45.1853 124.012 44.532 124.012 43.804C124.012 43.0667 124.162 42.4133 124.46 41.844C124.768 41.2653 125.179 40.8127 125.692 40.486C126.215 40.1593 126.798 39.996 127.442 39.996C127.825 39.996 128.175 40.052 128.492 40.164C128.81 40.276 129.085 40.4347 129.318 40.64C129.561 40.836 129.757 41.0647 129.906 41.326C130.065 41.5873 130.163 41.8673 130.2 42.166L129.878 42.054V40.15H131.334V47.5H129.878V45.75L130.214 45.652C130.158 45.904 130.042 46.1513 129.864 46.394C129.696 46.6273 129.477 46.8373 129.206 47.024C128.945 47.2107 128.651 47.36 128.324 47.472C128.007 47.584 127.671 47.64 127.316 47.64ZM127.694 46.31C128.133 46.31 128.52 46.2027 128.856 45.988C129.192 45.7733 129.454 45.4793 129.64 45.106C129.836 44.7233 129.934 44.2893 129.934 43.804C129.934 43.328 129.836 42.9033 129.64 42.53C129.454 42.1567 129.192 41.8627 128.856 41.648C128.52 41.4333 128.133 41.326 127.694 41.326C127.265 41.326 126.882 41.4333 126.546 41.648C126.22 41.8627 125.958 42.1567 125.762 42.53C125.576 42.9033 125.482 43.328 125.482 43.804C125.482 44.2893 125.576 44.7233 125.762 45.106C125.958 45.4793 126.22 45.7733 126.546 45.988C126.882 46.2027 127.265 46.31 127.694 46.31ZM134.416 50.72L135.9 47.29L135.914 48.438L132.246 40.15H133.926L136.222 45.554C136.268 45.6473 136.324 45.792 136.39 45.988C136.455 46.1747 136.511 46.3613 136.558 46.548L136.194 46.632C136.268 46.436 136.338 46.24 136.404 46.044C136.478 45.848 136.548 45.652 136.614 45.456L138.532 40.15H140.24L137.216 47.5L135.97 50.72H134.416Z" fill="#FF914D"/>
<rect x="1" y="1" width="169.5" height="64" rx="32" stroke="#FF914D" stroke-width="0.7"/>
</svg>
