<svg width="1440" height="1414" viewBox="0 0 1440 1414" fill="none" xmlns="http://www.w3.org/2000/svg">
<path d="M77.8591 -148V1413.19H78.8591V-148H77.8591ZM261.019 -148V1413.19H262.019V-148H261.019ZM444.9 -148V1413.19H445.9V-148H444.9ZM628.059 -148V1413.19H629.059V-148H628.059ZM811.94 -148V1413.19H812.94V-148H811.94ZM995.1 -148V1413.19H996.1V-148H995.1ZM1178.98 -148V1413.19H1179.98V-148H1178.98ZM1362.14 -148V1413.19H1363.14V-148H1362.14ZM-77.399 1275.23L1518.4 1275.23V1274.23L-77.399 1274.23L-77.399 1275.23ZM-77.399 1092.07L1518.4 1092.07V1091.07L-77.399 1091.07L-77.399 1092.07ZM-77.399 908.193H1518.4V907.193H-77.399V908.193ZM-77.399 725.033L1518.4 725.033V724.033L-77.399 724.033L-77.399 725.033ZM-77.399 541.152L1518.4 541.152V540.152L-77.399 540.152L-77.399 541.152ZM-77.399 357.992L1518.4 357.992V356.992L-77.399 356.992L-77.399 357.992ZM-77.399 174.111L1518.4 174.111V173.111L-77.399 173.111L-77.399 174.111ZM-77.399 -9.04871L1518.4 -9.04878V-10.0488L-77.399 -10.0487L-77.399 -9.04871Z" fill="url(#paint0_diamond_276_672)"/>
<defs>
<radialGradient id="paint0_diamond_276_672" cx="0" cy="0" r="1" gradientUnits="userSpaceOnUse" gradientTransform="translate(734.5 677.5) rotate(90) scale(1103.5 1127.97)">
<stop stop-color="#D9D9D9"/>
<stop offset="1" stop-color="#E8E8E8" stop-opacity="0"/>
</radialGradient>
</defs>
</svg>
